<?xml version="1.0" encoding="utf-8"?>
<!-- Generator: Adobe Illustrator 17.0.0, SVG Export Plug-In . SVG Version: 6.00 Build 0)  -->
<!DOCTYPE svg PUBLIC "-//W3C//DTD SVG 1.1//EN" "http://www.w3.org/Graphics/SVG/1.1/DTD/svg11.dtd">
<svg version="1.1" id="Layer_1" xmlns="http://www.w3.org/2000/svg" xmlns:xlink="http://www.w3.org/1999/xlink" x="0px" y="0px"
	 width="1836.184px" height="409.761px" viewBox="0 0 1836.184 409.761" enable-background="new 0 0 1836.184 409.761"
	 xml:space="preserve">
<path fill-rule="evenodd" clip-rule="evenodd" fill="#DDDDDD" d="M408.926,348.394c0-9.962-3.609-14.957-10.807-14.957
	c-2.995,0-5.584,1.052-7.735,3.126c-2.151,2.073-3.228,4.584-3.228,7.555c0,2.945,1.052,5.505,3.126,7.656
	c2.073,2.155,4.616,3.116,7.505,3.342c2.309,0.184,3.107,0.113,6.861,0.024v27.985c-3.302,0.357-5.813,0.537-7.501,0.537
	c-10.401,0-19.414-3.842-27.021-11.552c-7.607-7.707-11.397-16.878-11.397-27.481c0-10.909,3.814-20.102,11.475-27.607
	c7.656-7.505,17.054-11.27,28.222-11.27c5.608,0,11.065,1.229,16.391,3.687c5.329,2.434,9.733,5.739,13.166,9.886
	c6.018,7.222,9.013,16.546,9.013,27.996v62.44h-28.07V348.394z M408.926,409.761"/>
<path fill-rule="evenodd" clip-rule="evenodd" fill="#DDDDDD" d="M471.446,389.206c2.715,0.078,3.422,0.051,5.423-0.138
	c2.367-0.223,4.349-0.793,5.895-2.378c1.546-1.604,2.315-3.617,2.315-6.094c0-2.339-0.851-4.372-2.558-6.079
	c-1.708-1.707-3.74-2.559-6.075-2.559c-2.583,0-4.635,0.934-6.161,2.802c-1.523,1.873-2.295,4.372-2.295,7.499v27.516H445.72
	v-29.122c0-9.712,2.763-17.395,8.311-23.003c5.525-5.628,13.107-8.433,22.697-8.433c8.617,0,15.931,3.011,21.948,9.002
	c6.015,5.996,9.021,13.292,9.021,21.909c0,8.856-2.966,16.215-8.92,22.085c-6.742,6.651-11.525,7.429-17.576,7.441
	c-2.853,0.004-6.079,0.093-9.755,0.082V389.206L471.446,389.206z M471.446,389.206"/>
<path fill-rule="evenodd" clip-rule="evenodd" fill="#DDDDDD" d="M223.023,389.206c2.715,0.078,3.422,0.051,5.423-0.138
	c2.367-0.223,4.349-0.793,5.895-2.378c1.546-1.604,2.315-3.617,2.315-6.094c0-2.339-0.851-4.372-2.558-6.079
	c-1.708-1.707-3.74-2.559-6.075-2.559c-2.583,0-4.635,0.934-6.161,2.802c-1.523,1.873-2.295,4.372-2.295,7.499v27.516h-22.269
	v-29.122c0-9.712,2.763-17.395,8.311-23.003c5.525-5.628,13.107-8.433,22.697-8.433c8.617,0,15.932,3.011,21.948,9.002
	c6.015,5.996,9.021,13.292,9.021,21.909c0,8.856-2.966,16.215-8.92,22.085c-6.742,6.651-11.525,7.429-17.576,7.441
	c-2.853,0.004-6.079,0.093-9.755,0.082V389.206L223.023,389.206z M223.023,389.206"/>
<path fill-rule="evenodd" clip-rule="evenodd" fill="#DDDDDD" d="M775.149,324.815c0-9.962-3.609-14.957-10.807-14.957
	c-2.995,0-5.584,1.052-7.735,3.126c-2.151,2.073-3.228,4.584-3.228,7.555c0,2.945,1.052,5.505,3.126,7.656
	c2.073,2.155,4.616,3.116,7.505,3.342c2.309,0.184,3.107,0.113,6.861,0.024v27.985c-3.302,0.357-5.813,0.537-7.501,0.537
	c-10.401,0-19.414-3.842-27.021-11.552c-7.607-7.707-11.397-16.878-11.397-27.481c0-10.909,3.815-20.102,11.475-27.607
	c7.656-7.505,17.054-11.27,28.222-11.27c5.608,0,11.065,1.229,16.391,3.687c5.329,2.434,9.733,5.739,13.166,9.886
	c6.018,7.222,9.013,16.546,9.013,27.996v87.036h-28.07V324.815z M775.149,410.777"/>
<path fill-rule="evenodd" clip-rule="evenodd" fill="#DDDDDD" d="M100.203,302.504c0-9.962-3.609-14.957-10.807-14.957
	c-2.995,0-5.584,1.052-7.735,3.126c-2.151,2.073-3.228,4.584-3.228,7.555c0,2.945,1.052,5.505,3.126,7.656
	c2.073,2.155,4.616,3.116,7.505,3.342c2.309,0.184,3.107,0.113,6.861,0.024v27.985c-3.302,0.357-5.813,0.537-7.501,0.537
	c-10.401,0-19.414-3.842-27.021-11.552c-7.607-7.707-11.397-16.878-11.397-27.481c0-10.909,3.814-20.102,11.475-27.607
	c7.656-7.505,17.054-11.27,28.222-11.27c5.608,0,11.065,1.229,16.391,3.687c5.329,2.434,9.733,5.739,13.166,9.886
	c6.018,7.222,9.013,16.546,9.013,27.996v108.33h-28.07V302.504z M100.203,409.761"/>
<path fill-rule="evenodd" clip-rule="evenodd" fill="#DDDDDD" d="M693.407,389.206c2.715,0.078,3.422,0.051,5.423-0.138
	c2.367-0.223,4.349-0.793,5.895-2.378c1.546-1.604,2.315-3.617,2.315-6.094c0-2.339-0.851-4.372-2.558-6.079
	c-1.708-1.707-3.74-2.559-6.075-2.559c-2.583,0-4.635,0.934-6.161,2.802c-1.523,1.873-2.295,4.372-2.295,7.499v27.516h-22.269
	v-29.122c0-9.712,2.763-17.395,8.311-23.003c5.525-5.628,13.107-8.433,22.697-8.433c8.617,0,15.932,3.011,21.948,9.002
	c6.015,5.996,9.021,13.292,9.021,21.909c0,8.856-2.966,16.215-8.92,22.085c-6.742,6.651-11.525,7.429-17.576,7.441
	c-2.853,0.004-6.079,0.093-9.755,0.082V389.206L693.407,389.206z M693.407,389.206"/>
<path fill-rule="evenodd" clip-rule="evenodd" fill="#DDDDDD" d="M51.604,389.206v20.531c-3.677,0.011-6.902-0.078-9.755-0.082
	c-6.051-0.012-10.834-0.79-17.576-7.441c-5.953-5.87-8.92-13.228-8.92-22.085c0-8.617,3.006-15.912,9.021-21.909
	c6.016-5.991,13.331-9.002,21.948-9.002c9.591,0,17.172,2.806,22.697,8.433c5.548,5.608,8.311,13.291,8.311,23.003v29.122H55.061
	v-27.516c0-3.127-0.772-5.627-2.295-7.499c-1.526-1.867-3.578-2.802-6.161-2.802c-2.335,0-4.367,0.852-6.075,2.559
	c-1.707,1.707-2.558,3.74-2.558,6.079c0,2.476,0.768,4.489,2.315,6.094c1.546,1.585,3.528,2.155,5.895,2.378
	C48.182,389.257,48.889,389.285,51.604,389.206L51.604,389.206z M51.604,389.206"/>
<path fill-rule="evenodd" clip-rule="evenodd" fill="#DDDDDD" d="M842.016,389.206c2.715,0.078,3.422,0.051,5.423-0.138
	c2.367-0.223,4.349-0.793,5.895-2.378c1.546-1.604,2.315-3.617,2.315-6.094c0-2.339-0.851-4.372-2.558-6.079
	c-1.708-1.707-3.74-2.559-6.075-2.559c-2.583,0-4.635,0.934-6.161,2.802c-1.523,1.873-2.295,4.372-2.295,7.499v27.516H816.29
	v-29.122c0-9.712,2.763-17.395,8.311-23.003c5.525-5.628,13.107-8.433,22.697-8.433c8.617,0,15.932,3.011,21.948,9.002
	c6.015,5.996,9.021,13.292,9.021,21.909c0,8.856-2.966,16.215-8.92,22.085c-6.742,6.651-11.526,7.429-17.576,7.441
	c-2.853,0.004-6.079,0.093-9.755,0.082V389.206L842.016,389.206z M842.016,389.206"/>
<path fill-rule="evenodd" clip-rule="evenodd" fill="#DDDDDD" d="M634.764,410.777h-31.189V283.5
	c0-12.722,3.328-23.082,10.015-31.107c3.814-4.607,8.708-8.28,14.629-10.984c5.918-2.731,11.981-4.097,18.212-4.097
	c12.409,0,22.851,4.183,31.358,12.522c8.512,8.339,12.75,18.553,12.75,30.675c0,11.781-4.211,21.971-12.664,30.534
	c-8.452,8.566-18.467,12.835-30.024,12.835c-1.876,0-4.665-0.2-8.334-0.597v-31.095c4.171,0.098,5.058,0.177,7.624-0.027
	c3.211-0.251,6.035-1.319,8.339-3.713c2.303-2.39,3.473-5.235,3.473-8.507c0-3.301-1.196-6.091-3.586-8.394
	c-2.39-2.303-5.266-3.473-8.594-3.473c-7.997,0-12.008,5.549-12.008,16.619V410.777z M634.764,410.777"/>
<path fill-rule="evenodd" clip-rule="evenodd" fill="#DDDDDD" d="M181.489,409.761H150.3V223.197
	c0-12.722,3.328-23.082,10.015-31.107c3.814-4.607,8.708-8.28,14.629-10.984c5.918-2.731,11.981-4.097,18.212-4.097
	c12.408,0,22.851,4.183,31.358,12.522c8.512,8.339,12.75,18.553,12.75,30.675c0,11.781-4.211,21.971-12.664,30.534
	c-8.452,8.566-18.467,12.835-30.024,12.835c-1.876,0-4.665-0.2-8.334-0.597v-31.095c4.171,0.098,5.058,0.177,7.624-0.027
	c3.211-0.251,6.035-1.319,8.339-3.713c2.303-2.39,3.473-5.235,3.473-8.507c0-3.301-1.196-6.091-3.586-8.394
	c-2.39-2.304-5.266-3.473-8.594-3.473c-7.997,0-12.008,5.549-12.008,16.619V409.761z M181.489,409.761"/>
<path fill-rule="evenodd" clip-rule="evenodd" fill="#DDDDDD" d="M569.126,350.07v20.531c-3.677,0.011-6.902-0.078-9.755-0.082
	c-6.051-0.012-10.834-0.79-17.576-7.441c-5.953-5.87-8.92-13.228-8.92-22.085c0-8.617,3.006-15.912,9.021-21.909
	c6.016-5.991,13.331-9.002,21.948-9.002c9.591,0,17.172,2.806,22.697,8.433c5.548,5.608,8.311,13.29,8.311,23.003v69.259h-22.269
	v-67.654c0-3.127-0.773-5.627-2.295-7.499c-1.526-1.868-3.578-2.802-6.161-2.802c-2.335,0-4.367,0.852-6.075,2.559
	c-1.707,1.707-2.558,3.74-2.558,6.079c0,2.476,0.768,4.489,2.315,6.094c1.546,1.585,3.528,2.155,5.895,2.378
	C565.704,350.121,566.41,350.148,569.126,350.07L569.126,350.07z M569.126,350.07"/>
<path fill-rule="evenodd" clip-rule="evenodd" fill="#DDDDDD" d="M345.777,410.777h-28.518V257.154
	c0-11.633,3.043-21.106,9.157-28.443c3.488-4.212,7.962-7.571,13.376-10.043c5.411-2.498,10.955-3.746,16.652-3.746
	c11.346,0,20.894,3.825,28.673,11.45c7.783,7.625,11.658,16.965,11.658,28.048c0,10.772-3.851,20.09-11.579,27.919
	c-7.729,7.832-16.886,11.736-27.453,11.736c-1.715,0-4.266-0.183-7.62-0.546v-28.432c3.814,0.09,4.625,0.162,6.971-0.025
	c2.936-0.23,5.519-1.206,7.625-3.395c2.106-2.185,3.175-4.787,3.175-7.778c0-3.018-1.094-5.569-3.279-7.675
	c-2.185-2.106-4.815-3.175-7.858-3.175c-7.313,0-10.979,5.074-10.979,15.196V410.777z M345.777,410.777"/>
<path fill-rule="evenodd" clip-rule="evenodd" fill="#DDDDDD" d="M278.173,322.16v20.531c-3.677,0.011-6.902-0.078-9.755-0.082
	c-6.051-0.012-10.834-0.79-17.576-7.441c-5.953-5.87-8.92-13.228-8.92-22.085c0-8.617,3.006-15.912,9.021-21.909
	c6.016-5.991,13.331-9.002,21.948-9.002c9.591,0,17.172,2.806,22.697,8.433c5.548,5.608,8.311,13.291,8.311,23.003v97.168H281.63
	v-95.563c0-3.127-0.772-5.627-2.295-7.499c-1.526-1.868-3.578-2.802-6.161-2.802c-2.335,0-4.367,0.852-6.075,2.559
	c-1.707,1.707-2.558,3.74-2.558,6.079c0,2.476,0.768,4.489,2.315,6.094c1.546,1.585,3.528,2.155,5.895,2.378
	C274.752,322.211,275.458,322.238,278.173,322.16L278.173,322.16z M278.173,322.16"/>
<path fill-rule="evenodd" clip-rule="evenodd" fill="#DDDDDD" d="M1424.102,409.761h-28.07v-62.44
	c0-11.45,2.995-20.774,9.013-27.996c3.433-4.146,7.837-7.452,13.166-9.886c5.326-2.458,10.783-3.687,16.391-3.687
	c11.168,0,20.566,3.765,28.222,11.27c7.661,7.505,11.475,16.698,11.475,27.607c0,10.603-3.79,19.774-11.397,27.481
	c-7.607,7.709-16.62,11.552-27.021,11.552c-1.688,0-4.199-0.18-7.5-0.537v-27.985c3.754,0.089,4.552,0.159,6.861-0.024
	c2.89-0.226,5.432-1.187,7.505-3.342c2.073-2.151,3.125-4.711,3.125-7.656c0-2.971-1.077-5.482-3.228-7.555
	s-4.739-3.126-7.735-3.126c-7.198,0-10.807,4.994-10.807,14.957V409.761z M1424.102,409.761"/>
<path fill-rule="evenodd" clip-rule="evenodd" fill="#DDDDDD" d="M1358.033,389.206v20.531c-3.677,0.011-6.902-0.078-9.755-0.082
	c-6.051-0.012-10.834-0.79-17.576-7.441c-5.953-5.87-8.92-13.228-8.92-22.085c0-8.617,3.006-15.912,9.021-21.909
	c6.016-5.991,13.331-9.002,21.948-9.002c9.591,0,17.172,2.806,22.697,8.433c5.548,5.608,8.311,13.291,8.311,23.003v29.122h-22.269
	v-27.516c0-3.127-0.772-5.627-2.295-7.499c-1.526-1.867-3.578-2.802-6.161-2.802c-2.335,0-4.367,0.852-6.075,2.559
	c-1.707,1.707-2.558,3.74-2.558,6.079c0,2.476,0.769,4.489,2.315,6.094c1.546,1.585,3.528,2.155,5.895,2.378
	C1354.612,389.257,1355.318,389.285,1358.033,389.206L1358.033,389.206z M1358.033,389.206"/>
<path fill-rule="evenodd" clip-rule="evenodd" fill="#DDDDDD" d="M1606.456,389.206v20.531c-3.677,0.011-6.902-0.078-9.755-0.082
	c-6.051-0.012-10.834-0.79-17.576-7.441c-5.953-5.87-8.92-13.228-8.92-22.085c0-8.617,3.006-15.912,9.021-21.909
	c6.016-5.991,13.331-9.002,21.948-9.002c9.591,0,17.172,2.806,22.697,8.433c5.548,5.608,8.311,13.291,8.311,23.003v29.122h-22.269
	v-27.516c0-3.127-0.773-5.627-2.295-7.499c-1.526-1.867-3.578-2.802-6.161-2.802c-2.335,0-4.367,0.852-6.075,2.559
	c-1.707,1.707-2.558,3.74-2.558,6.079c0,2.476,0.769,4.489,2.315,6.094c1.546,1.585,3.528,2.155,5.895,2.378
	C1603.035,389.257,1603.741,389.285,1606.456,389.206L1606.456,389.206z M1606.456,389.206"/>
<path fill-rule="evenodd" clip-rule="evenodd" fill="#DDDDDD" d="M1059.654,410.777h-28.07v-87.036
	c0-11.45,2.995-20.774,9.013-27.996c3.433-4.146,7.837-7.452,13.166-9.886c5.326-2.458,10.782-3.687,16.391-3.687
	c11.168,0,20.566,3.765,28.222,11.27c7.661,7.505,11.475,16.698,11.475,27.607c0,10.603-3.79,19.774-11.397,27.481
	c-7.607,7.709-16.62,11.552-27.021,11.552c-1.688,0-4.199-0.18-7.501-0.537V331.56c3.754,0.089,4.552,0.159,6.861-0.024
	c2.89-0.226,5.432-1.187,7.505-3.342c2.073-2.151,3.125-4.711,3.125-7.656c0-2.971-1.077-5.482-3.228-7.555
	s-4.739-3.126-7.735-3.126c-7.198,0-10.807,4.994-10.807,14.957V410.777z M1059.654,410.777"/>
<path fill-rule="evenodd" clip-rule="evenodd" fill="#DDDDDD" d="M1731.051,409.761h-28.07V301.43
	c0-11.45,2.995-20.774,9.013-27.996c3.433-4.146,7.837-7.452,13.166-9.886c5.326-2.458,10.782-3.687,16.391-3.687
	c11.168,0,20.566,3.765,28.222,11.27c7.661,7.505,11.475,16.698,11.475,27.607c0,10.603-3.79,19.774-11.397,27.481
	c-7.607,7.709-16.62,11.552-27.021,11.552c-1.688,0-4.199-0.18-7.5-0.537v-27.985c3.754,0.089,4.552,0.159,6.861-0.024
	c2.89-0.226,5.432-1.187,7.505-3.342c2.073-2.151,3.125-4.711,3.125-7.656c0-2.971-1.077-5.482-3.228-7.555
	s-4.739-3.126-7.735-3.126c-7.198,0-10.807,4.994-10.807,14.957V409.761z M1731.051,409.761"/>
<path fill-rule="evenodd" clip-rule="evenodd" fill="#DDDDDD" d="M1134.298,389.206v20.531c-3.677,0.011-6.902-0.078-9.755-0.082
	c-6.051-0.012-10.834-0.79-17.576-7.441c-5.953-5.87-8.92-13.228-8.92-22.085c0-8.617,3.006-15.912,9.021-21.909
	c6.016-5.991,13.331-9.002,21.948-9.002c9.591,0,17.172,2.806,22.697,8.433c5.548,5.608,8.311,13.291,8.311,23.003v29.122h-22.269
	v-27.516c0-3.127-0.772-5.627-2.295-7.499c-1.526-1.867-3.578-2.802-6.161-2.802c-2.335,0-4.367,0.852-6.075,2.559
	c-1.707,1.707-2.558,3.74-2.558,6.079c0,2.476,0.768,4.489,2.315,6.094c1.546,1.585,3.528,2.155,5.895,2.378
	C1130.876,389.257,1131.582,389.285,1134.298,389.206L1134.298,389.206z M1134.298,389.206"/>
<path fill-rule="evenodd" clip-rule="evenodd" fill="#DDDDDD" d="M1779.65,389.206c2.715,0.078,3.422,0.051,5.423-0.138
	c2.367-0.223,4.349-0.793,5.895-2.378c1.546-1.604,2.315-3.617,2.315-6.094c0-2.339-0.851-4.372-2.558-6.079
	c-1.708-1.707-3.74-2.559-6.075-2.559c-2.583,0-4.635,0.934-6.161,2.802c-1.523,1.873-2.295,4.372-2.295,7.499v27.516h-22.269
	v-29.122c0-9.712,2.763-17.395,8.311-23.003c5.525-5.628,13.107-8.433,22.697-8.433c8.617,0,15.931,3.011,21.948,9.002
	c6.015,5.996,9.021,13.292,9.021,21.909c0,8.856-2.966,16.215-8.92,22.085c-6.742,6.651-11.526,7.429-17.576,7.441
	c-2.853,0.004-6.079,0.093-9.755,0.082V389.206L1779.65,389.206z M1779.65,389.206"/>
<path fill-rule="evenodd" clip-rule="evenodd" fill="#DDDDDD" d="M992.787,389.206v20.531c-3.677,0.011-6.902-0.078-9.755-0.082
	c-6.051-0.012-10.834-0.79-17.576-7.441c-5.953-5.87-8.92-13.228-8.92-22.085c0-8.617,3.006-15.912,9.021-21.909
	c6.016-5.991,13.331-9.002,21.948-9.002c9.591,0,17.172,2.806,22.697,8.433c5.548,5.608,8.311,13.291,8.311,23.003v29.122h-22.269
	v-27.516c0-3.127-0.772-5.627-2.295-7.499c-1.526-1.867-3.578-2.802-6.161-2.802c-2.335,0-4.367,0.852-6.075,2.559
	c-1.707,1.707-2.558,3.74-2.558,6.079c0,2.476,0.768,4.489,2.315,6.094c1.546,1.585,3.528,2.155,5.895,2.378
	C989.365,389.257,990.072,389.285,992.787,389.206L992.787,389.206z M992.787,389.206"/>
<path fill-rule="evenodd" clip-rule="evenodd" fill="#DDDDDD" d="M1200.039,302.439c0-11.069-4.01-16.619-12.008-16.619
	c-3.328,0-6.204,1.169-8.594,3.473s-3.586,5.093-3.586,8.394c0,3.272,1.169,6.117,3.473,8.507c2.304,2.394,5.128,3.462,8.339,3.713
	c2.566,0.204,3.453,0.126,7.624,0.027v31.095c-3.669,0.397-6.458,0.597-8.334,0.597c-11.557,0-21.571-4.269-30.024-12.835
	c-8.453-8.563-12.664-18.753-12.664-30.534c0-12.121,4.238-22.336,12.75-30.675c8.507-8.339,18.949-12.522,31.358-12.522
	c6.231,0,12.294,1.365,18.212,4.097c5.921,2.704,10.814,6.377,14.629,10.984c6.686,8.025,10.015,18.385,10.015,31.107v109.531
	h-31.189V302.439z M1200.039,410.777"/>
<path fill-rule="evenodd" clip-rule="evenodd" fill="#DDDDDD" d="M1647.99,188.896c0-11.069-4.01-16.619-12.008-16.619
	c-3.328,0-6.204,1.169-8.594,3.473c-2.39,2.303-3.586,5.093-3.586,8.394c0,3.272,1.169,6.117,3.473,8.507
	c2.303,2.394,5.128,3.462,8.339,3.713c2.566,0.204,3.453,0.126,7.624,0.027v31.095c-3.669,0.397-6.458,0.597-8.334,0.597
	c-11.557,0-21.571-4.269-30.024-12.835c-8.452-8.563-12.664-18.753-12.664-30.534c0-12.121,4.238-22.336,12.75-30.675
	c8.507-8.339,18.949-12.522,31.358-12.522c6.231,0,12.294,1.365,18.212,4.097c5.921,2.704,10.814,6.377,14.629,10.984
	c6.687,8.025,10.015,18.385,10.015,31.107v222.057h-31.189V188.896z M1647.99,409.761"/>
<path fill-rule="evenodd" clip-rule="evenodd" fill="#DDDDDD" d="M1265.677,350.07c2.715,0.078,3.422,0.051,5.423-0.138
	c2.367-0.223,4.349-0.793,5.895-2.378c1.546-1.604,2.314-3.617,2.314-6.094c0-2.339-0.851-4.372-2.558-6.079
	c-1.708-1.707-3.74-2.559-6.075-2.559c-2.583,0-4.635,0.934-6.161,2.802c-1.523,1.873-2.295,4.372-2.295,7.499v67.654h-22.269
	v-69.259c0-9.712,2.763-17.395,8.311-23.003c5.525-5.628,13.107-8.433,22.697-8.433c8.617,0,15.932,3.011,21.948,9.002
	c6.015,5.996,9.021,13.292,9.021,21.909c0,8.856-2.967,16.215-8.92,22.085c-6.742,6.651-11.525,7.429-17.576,7.441
	c-2.853,0.004-6.079,0.093-9.755,0.082V350.07L1265.677,350.07z M1265.677,350.07"/>
<path fill-rule="evenodd" clip-rule="evenodd" fill="#DDDDDD" d="M1485.477,258.244c0-10.122-3.667-15.196-10.979-15.196
	c-3.043,0-5.673,1.069-7.858,3.175c-2.185,2.106-3.279,4.657-3.279,7.675c0,2.992,1.069,5.593,3.175,7.778
	c2.106,2.189,4.689,3.165,7.625,3.395c2.346,0.186,3.157,0.115,6.971,0.025v28.432c-3.354,0.363-5.905,0.546-7.62,0.546
	c-10.567,0-19.724-3.904-27.453-11.736c-7.729-7.83-11.579-17.147-11.579-27.919c0-11.083,3.875-20.423,11.658-28.048
	c7.778-7.625,17.327-11.45,28.673-11.45c5.698,0,11.241,1.248,16.652,3.746c5.414,2.473,9.888,5.831,13.376,10.043
	c6.114,7.337,9.157,16.81,9.157,28.443v153.624h-28.518V258.244z M1485.477,410.777"/>
<path fill-rule="evenodd" clip-rule="evenodd" fill="#DDDDDD" d="M1554.855,322.16c2.715,0.078,3.422,0.051,5.423-0.138
	c2.367-0.223,4.349-0.793,5.895-2.378c1.546-1.604,2.314-3.617,2.314-6.094c0-2.339-0.851-4.372-2.558-6.079
	c-1.708-1.707-3.74-2.559-6.075-2.559c-2.583,0-4.635,0.934-6.161,2.802c-1.523,1.873-2.295,4.372-2.295,7.499v95.563h-22.269
	v-97.168c0-9.712,2.763-17.395,8.311-23.003c5.525-5.628,13.107-8.433,22.697-8.433c8.617,0,15.932,3.011,21.948,9.002
	c6.015,5.996,9.021,13.292,9.021,21.909c0,8.856-2.967,16.215-8.92,22.085c-6.742,6.651-11.525,7.429-17.576,7.441
	c-2.853,0.004-6.079,0.093-9.755,0.082V322.16L1554.855,322.16z M1554.855,322.16"/>
<g>
	<path fill-rule="evenodd" clip-rule="evenodd" fill="#CCCCCC" d="M693.312,144.947h-19.458v-43.283
		c0-7.937,2.076-14.4,6.248-19.407c2.38-2.874,5.432-5.165,9.126-6.853c3.692-1.704,7.474-2.556,11.362-2.556
		c7.741,0,14.256,2.61,19.563,7.812c5.31,5.202,7.954,11.575,7.954,19.137c0,7.35-2.627,13.707-7.901,19.049
		c-5.273,5.344-11.521,8.008-18.731,8.008c-1.17,0-2.911-0.125-5.199-0.372v-19.399c2.602,0.061,3.156,0.11,4.756-0.017
		c2.003-0.157,3.765-0.823,5.202-2.316c1.437-1.491,2.167-3.266,2.167-5.307c0-2.059-0.746-3.8-2.237-5.237
		c-1.491-1.437-3.285-2.167-5.362-2.167c-4.989,0-7.491,3.462-7.491,10.368V144.947z M693.312,144.947"/>
	<path fill-rule="evenodd" clip-rule="evenodd" fill="#34255A" d="M671.695,132.124v12.809c-2.294,0.007-4.306-0.049-6.086-0.051
		c-3.775-0.008-6.759-0.493-10.965-4.642c-3.714-3.662-5.565-8.253-5.565-13.778c0-5.376,1.875-9.927,5.628-13.668
		c3.753-3.738,8.317-5.616,13.693-5.616c5.983,0,10.713,1.75,14.16,5.261c3.461,3.498,5.185,8.292,5.185,14.351v18.168h-13.893
		v-17.167c0-1.951-0.482-3.51-1.432-4.678c-0.952-1.165-2.232-1.748-3.844-1.748c-1.456,0-2.724,0.531-3.79,1.596
		c-1.065,1.065-1.596,2.333-1.596,3.792c0,1.545,0.479,2.801,1.444,3.802c0.965,0.989,2.201,1.344,3.678,1.483
		C669.561,132.156,670.001,132.173,671.695,132.124L671.695,132.124z M671.695,132.124"/>
	<path fill="#CCCCCC" d="M703.263,140.487h-3.408l1.701-4.612L703.263,140.487L703.263,140.487z M697.311,143.907h1.322l0.844-2.377
		h4.177l0.844,2.377h1.303l-3.532-9.267h-1.421L697.311,143.907L697.311,143.907z M712.732,138.761
		c0.271-0.385,0.407-0.869,0.407-1.452c0-0.894-0.261-1.562-0.782-2.005c-0.521-0.443-1.312-0.664-2.371-0.664h-2.83v9.267h1.254
		v-3.917h1.366c0.497,0,0.888,0.101,1.176,0.304c0.288,0.203,0.584,0.614,0.891,1.235l1.185,2.377h1.347l-1.272-2.532
		c-0.257-0.521-0.512-0.931-0.767-1.229c-0.255-0.298-0.516-0.492-0.785-0.583C712.066,139.413,712.46,139.146,712.732,138.761
		L712.732,138.761z M709.985,135.67c0.604,0,1.06,0.138,1.369,0.413c0.308,0.275,0.462,0.684,0.462,1.226
		c0,0.542-0.154,0.953-0.462,1.232c-0.308,0.279-0.764,0.419-1.369,0.419h-1.577v-3.29H709.985L709.985,135.67z M721.911,136.508
		c0.532,0.679,0.798,1.604,0.798,2.774c0,1.167-0.266,2.09-0.798,2.768c-0.532,0.679-1.253,1.018-2.163,1.018
		c-0.91,0-1.633-0.339-2.169-1.018c-0.536-0.679-0.804-1.601-0.804-2.768c0-1.171,0.268-2.096,0.804-2.774
		c0.536-0.679,1.259-1.018,2.169-1.018C720.659,135.49,721.38,135.83,721.911,136.508L721.911,136.508z M723.382,142.045
		c0.432-0.765,0.649-1.686,0.649-2.762c0-1.465-0.389-2.633-1.167-3.504c-0.778-0.871-1.817-1.307-3.116-1.307
		c-1.303,0-2.345,0.436-3.125,1.307c-0.78,0.871-1.17,2.039-1.17,3.504c0,1.461,0.39,2.627,1.17,3.498
		c0.78,0.871,1.822,1.307,3.125,1.307c0.066,0,0.135-0.002,0.208-0.006c0.072-0.004,0.177-0.01,0.313-0.019l1.372,1.483h1.514
		l-1.651-1.806C722.324,143.375,722.95,142.81,723.382,142.045L723.382,142.045z M725.85,140.425c0,1.208,0.299,2.121,0.897,2.737
		c0.598,0.617,1.482,0.925,2.653,0.925c1.167,0,2.049-0.308,2.647-0.925c0.598-0.617,0.897-1.529,0.897-2.737v-5.785h-1.26v5.63
		c0,0.993-0.18,1.708-0.54,2.144c-0.36,0.437-0.941,0.655-1.744,0.655c-0.807,0-1.39-0.218-1.75-0.655
		c-0.36-0.437-0.54-1.151-0.54-2.144v-5.63h-1.26V140.425L725.85,140.425z M735.296,143.907h1.254v-9.267h-1.254V143.907
		L735.296,143.907z M737.76,135.695h3.29v8.212h1.26v-8.212h3.29v-1.055h-7.839V135.695L737.76,135.695z M746.81,143.907h5.971
		v-1.055h-4.717v-3.358h4.413v-1.055h-4.413v-2.743h4.605v-1.055h-5.859V143.907L746.81,143.907z M753.557,135.695h3.29v8.212h1.26
		v-8.212h3.29v-1.055h-7.839V135.695L753.557,135.695z M762.464,140.425c0,1.208,0.299,2.121,0.897,2.737
		c0.598,0.617,1.482,0.925,2.653,0.925c1.167,0,2.049-0.308,2.647-0.925c0.598-0.617,0.897-1.529,0.897-2.737v-5.785h-1.26v5.63
		c0,0.993-0.18,1.708-0.54,2.144c-0.36,0.437-0.941,0.655-1.744,0.655c-0.807,0-1.39-0.218-1.75-0.655
		c-0.36-0.437-0.54-1.151-0.54-2.144v-5.63h-1.26V140.425L762.464,140.425z M777.487,138.761c0.271-0.385,0.406-0.869,0.406-1.452
		c0-0.894-0.261-1.562-0.782-2.005c-0.521-0.443-1.312-0.664-2.371-0.664h-2.83v9.267h1.254v-3.917h1.365
		c0.497,0,0.889,0.101,1.176,0.304c0.288,0.203,0.584,0.614,0.891,1.235l1.185,2.377h1.347l-1.272-2.532
		c-0.257-0.521-0.512-0.931-0.767-1.229c-0.254-0.298-0.516-0.492-0.785-0.583C776.822,139.413,777.216,139.146,777.487,138.761
		L777.487,138.761z M774.741,135.67c0.604,0,1.06,0.138,1.369,0.413c0.308,0.275,0.462,0.684,0.462,1.226
		c0,0.542-0.154,0.953-0.462,1.232c-0.308,0.279-0.765,0.419-1.369,0.419h-1.577v-3.29H774.741L774.741,135.67z"/>
	<path fill="#CCCCCC" d="M785.064,140.487h-3.408l1.701-4.612L785.064,140.487L785.064,140.487z M779.111,143.907h1.322l0.844-2.377
		h4.177l0.844,2.377h1.303l-3.532-9.267h-1.421L779.111,143.907L779.111,143.907z M792.996,143.907h1.217v-7.752l4.109,7.752h1.688
		v-9.267h-1.217v7.752l-4.109-7.752h-1.688V143.907L792.996,143.907z M807.309,140.487h-3.408l1.701-4.612L807.309,140.487
		L807.309,140.487z M801.357,143.907h1.322l0.844-2.377h4.177l0.844,2.377h1.303l-3.532-9.267h-1.421L801.357,143.907
		L801.357,143.907z M818.072,135.67c0.583,0,1.034,0.151,1.353,0.453c0.319,0.302,0.478,0.73,0.478,1.285
		c0,0.559-0.159,0.989-0.478,1.291c-0.319,0.302-0.77,0.453-1.353,0.453h-1.577v-3.482H818.072L818.072,135.67z M815.241,143.907
		h1.254v-3.724h1.577c1.039,0,1.824-0.234,2.355-0.701c0.532-0.468,0.798-1.159,0.798-2.073c0-0.906-0.266-1.594-0.798-2.064
		c-0.532-0.47-1.317-0.704-2.355-0.704h-2.83V143.907L815.241,143.907z M828.484,138.761c0.271-0.385,0.407-0.869,0.407-1.452
		c0-0.894-0.261-1.562-0.782-2.005c-0.521-0.443-1.312-0.664-2.371-0.664h-2.83v9.267h1.254v-3.917h1.365
		c0.497,0,0.889,0.101,1.176,0.304c0.288,0.203,0.584,0.614,0.891,1.235l1.185,2.377h1.347l-1.272-2.532
		c-0.257-0.521-0.512-0.931-0.767-1.229s-0.516-0.492-0.785-0.583C827.818,139.413,828.213,139.146,828.484,138.761L828.484,138.761
		z M825.737,135.67c0.604,0,1.06,0.138,1.369,0.413c0.308,0.275,0.462,0.684,0.462,1.226c0,0.542-0.154,0.953-0.462,1.232
		c-0.308,0.279-0.765,0.419-1.369,0.419h-1.576v-3.29H825.737L825.737,135.67z"/>
	<path fill="#CCCCCC" d="M836.035,140.487h-3.408l1.701-4.612L836.035,140.487L836.035,140.487z M830.082,143.907h1.322l0.844-2.377
		h4.177l0.844,2.377h1.303l-3.532-9.267h-1.421L830.082,143.907L830.082,143.907z M833.453,133.759h0.95l1.415-1.639h-1.148
		L833.453,133.759L833.453,133.759z"/>
	<path fill="#CCCCCC" d="M837.65,135.695h3.29v8.212h1.26v-8.212h3.29v-1.055h-7.839V135.695L837.65,135.695z M846.7,143.907h1.254
		v-9.267H846.7V143.907L846.7,143.907z M856.007,134.693c-0.49-0.147-1.013-0.22-1.567-0.22c-1.403,0-2.508,0.429-3.314,1.288
		c-0.807,0.859-1.21,2.033-1.21,3.522c0,1.486,0.403,2.658,1.21,3.516c0.807,0.859,1.912,1.288,3.314,1.288
		c0.546,0,1.064-0.074,1.555-0.223c0.49-0.149,0.955-0.372,1.393-0.67v-1.31c-0.422,0.393-0.872,0.687-1.35,0.881
		c-0.478,0.195-0.986,0.292-1.524,0.292c-1.059,0-1.87-0.324-2.433-0.971c-0.563-0.648-0.844-1.582-0.844-2.802
		c0-1.225,0.281-2.161,0.844-2.809c0.563-0.648,1.374-0.971,2.433-0.971c0.538,0,1.046,0.097,1.524,0.292
		c0.478,0.195,0.928,0.488,1.35,0.881v-1.322C856.957,135.06,856.497,134.84,856.007,134.693L856.007,134.693z M864.128,140.487
		h-3.408l1.701-4.612L864.128,140.487L864.128,140.487z M858.176,143.907h1.322l0.844-2.377h4.177l0.844,2.377h1.303l-3.532-9.267
		h-1.421L858.176,143.907L858.176,143.907z"/>
</g>
<g>
	<g>
		<g id="SPLINE_16_">
			<path fill="#34255B" d="M985.57,144.083h13.648c5.343,0,7.402-2.064,7.402-5.153c0-10.173-21.117-4.25-21.117-15.646
				c0-3.993,2.768-7.404,7.79-7.404h13.712v2.318h-13.521c-2.638,0-5.276,1.673-5.276,5.024c0,9.013,21.115,3.283,21.115,15.32
				c0,5.344-3.924,7.856-10.684,7.856H985.57V144.083z"/>
		</g>
		<g id="SPLINE_3_">
			<path fill="#34255B" d="M1013.835,115.881h10.82v2.318h-10.82v19.7c0,3.864,2.32,6.185,5.925,6.185h4.895v2.315h-4.382
				c-5.792,0-8.883-3.349-8.883-8.755V107.51h2.445V115.881z"/>
		</g>
		<g id="SPLINE_2_">
			<path fill="#34255B" d="M1027.104,115.881v18.287c0,6.372,4.443,10.559,9.785,10.559c5.345,0,9.789-4.186,9.789-10.559v-18.287
				h2.444v18.608c0,7.531-5.409,12.556-12.233,12.556c-6.825,0-12.233-5.025-12.233-12.556v-18.608H1027.104z"/>
		</g>
		<g id="SPLINE_1_">
			<path fill="#34255B" d="M1080.382,101.33v29.811c0,9.207-6.568,15.904-14.871,15.904c-8.306,0-14.873-6.697-14.873-15.904
				s6.566-15.903,14.873-15.903c4.697,0,7.659,2.319,9.525,3.862v2.899c-2.639-2.77-5.471-4.442-9.525-4.442
				c-6.184,0-12.299,5.728-12.299,13.584c0,7.853,6.115,13.586,12.299,13.586c7.338,0,12.427-6.506,12.427-13.586V101.33H1080.382z"
				/>
		</g>
		<g id="POLYLINE_4_">
			<polyline fill="#34255B" points="1082.652,146.398 1082.652,115.881 1085.1,115.881 1085.1,146.398 1082.652,146.398 			"/>
		</g>
		<path fill="#34255B" d="M1102.749,115.238c-8.755,0-15.45,7.273-15.45,15.903c0,8.626,6.695,15.904,15.45,15.904
			c8.756,0,15.454-7.278,15.454-15.904C1118.203,122.511,1111.506,115.238,1102.749,115.238z M1102.749,144.727
			c-7.469,0-12.875-6.506-12.875-13.586c0-7.083,5.406-13.584,12.875-13.584c7.468,0,12.879,6.501,12.879,13.584
			C1115.628,138.22,1110.217,144.727,1102.749,144.727z"/>
	</g>
	<path fill="#34255B" d="M1160.278,110.32c-3.82,3.818-10.011,3.818-13.828,0l-23.642-23.641v61.11h51.298v-7.333h-13.898
		c-1.417,0.083-3.378-0.727-4.321-1.789c-2.386-2.389-2.386-6.256,0-8.642l25.553-25.555v3.456l-21.023,21.024
		c-0.955,0.953-0.955,2.502,0,3.456c0.377,0.425,1.161,0.749,1.728,0.717h19.295v14.665h2.479v-61.11L1160.278,110.32z"/>
</g>
</svg>
